<svg id="Capa_1" data-name="Capa 1" xmlns="http://www.w3.org/2000/svg" viewBox="0 0 698.48 213.39">
  <defs>
    <style>
      .cls-1, .cls-4 {
        fill: #3988f8;
      }

      .cls-2 {
        fill: #fff;
      }

      .cls-3, .cls-4, .cls-5 {
        isolation: isolate;
      }

      .cls-4 {
        font-size: 97.47px;
        font-family: Arial-BoldMT, Arial;
        font-weight: 700;
      }

      .cls-5 {
        fill: none;
        stroke: #3988f8;
        stroke-linecap: round;
        opacity: 0.8;
      }
    </style>
  </defs>
  <g id="Group_2" data-name="Group 2">
    <g id="Group_1753" data-name="Group 1753">
      <g id="Group_1749" data-name="Group 1749">
        <g id="Group_1" data-name="Group 1">
          <g id="Group_1540" data-name="Group 1540">
            <g id="Group_1538" data-name="Group 1538">
              <path id="Path_986" data-name="Path 986" class="cls-1" d="M573.8,157.09s-1.36-5.84-.16-15,5-21.59,5-21.59l1.69,8.31a58.26,58.26,0,0,1,1.2-9.85,44.2,44.2,0,0,1,3.05-8.6,30,30,0,0,0,1.86,6.16,4.78,4.78,0,0,0,2.56,2.59,22.66,22.66,0,0,1,1.44-8.27A58.16,58.16,0,0,1,595.6,101a47.58,47.58,0,0,0,1.44,8.3,10.47,10.47,0,0,0,2.66,4.6,60.56,60.56,0,0,1,2.62-11.34,35,35,0,0,1,4.17-7.89,17.64,17.64,0,0,0-.18,5.52,7.49,7.49,0,0,0,2,3.75,106.5,106.5,0,0,1,7.22-15.69,52.33,52.33,0,0,1,11.23-12.74s-3.86,5.7-4.4,10a9.62,9.62,0,0,0,2.27,7.29s2.59-8.24,6.41-13.75a29.54,29.54,0,0,1,8.83-8.31s-2.06,7.76-1.8,11.38,2.86,3.07,2.86,3.07A31.91,31.91,0,0,1,648.61,74c1.9-1.81,11.89-8.72,11.89-8.72L658,76.13a31.78,31.78,0,0,0,11.29-8.86c4.37-5.82,8.82-15,8.82-15L677,67.08S692.2,56.59,695.2,39.82,689,0,689,0a51,51,0,0,1,14.45,10.81c6.16,6.88,10.37,16.88,11.25,21.25,1.75,8.79-.81,13.68.57,14.52,1,.61,3.79-6.6,3.79-6.6s.41,6-.28,8a73.08,73.08,0,0,1-3.39,14.68,33.92,33.92,0,0,1-6.2,10.21,51.6,51.6,0,0,0,6.08-2.47c3.38-1.62,6.16-8.18,6.16-8.18A32.86,32.86,0,0,1,713.1,80c-7.4,7.72-8.73,9.63-21.22,13.12s-28.75.83-28.75.83a29.41,29.41,0,0,0,10.44,4.37,108.11,108.11,0,0,0,16.67,1.89s-4.18,3.3-14.84,5S647.63,107,647.63,107a42,42,0,0,1,8.62,3.14,36.86,36.86,0,0,1,7.19,5.13s-13.07-1.7-20.43-1.76-9,1.53-9,1.53l6.73,8.28a104.07,104.07,0,0,0-11-1.29,28.68,28.68,0,0,0-7.45.53l8.55,6.2s-19,.59-30.36,4.69-14.17,7.7-14.17,7.7l15.09-2.59s-11.17,6.33-16.73,9.67A63.21,63.21,0,0,0,573.8,157.09Z" transform="translate(-23)"/>
              <path id="Path_987" data-name="Path 987" class="cls-1" d="M573.33,158.83l-4.5,7.42-3,20.26,5.79-20.23Z" transform="translate(-23)"/>
            </g>
          </g>
          <path id="Path_992" data-name="Path 992" class="cls-2" d="M573.45,160.15s.35-14.66,14.82-29.11c5.54-5.54,5.89-4.25,16.65-11.42s15.35-11.62,26.41-17.28c27.42-14,37.89-8.75,56.16-23.18A43.43,43.43,0,0,0,704.38,44.6s3.32,19.92-14.68,35-32.43,11.52-57.35,24.17c-14.56,7.39-16.36,9.85-27.2,16.92S595,126.38,589,132.08C574.28,146.17,573.45,160.15,573.45,160.15Z" transform="translate(-23)"/>
        </g>
        <g id="DefensApp" class="cls-3">
          <text class="cls-4" transform="translate(8.57 163.06)">DefensApp</text>
        </g>
      </g>
      <g id="Group_1751" data-name="Group 1751">
        <g id="Group_1540-2" data-name="Group 1540-2">
          <path id="Path_991" data-name="Path 991" class="cls-1" d="M565.56,187.29s4.69.33,2.65.39c-12,.85-99.85,17.85-164.7,23s-80,2-93.07-2.65c-33.73-11.9,128.38-16.93,36.1-23.85S135.48,189.5,31,190.38c-65.1.55,288.21-15.7,337.8-6.12S278,200.06,333,208.79,565.56,187.29,565.56,187.29Z" transform="translate(-23)"/>
        </g>
      </g>
    </g>
    <path id="Path_993" data-name="Path 993" class="cls-5" d="M14.25,93.28" transform="translate(-23)"/>
    <path id="Path_995" data-name="Path 995" class="cls-5" d="M14.25,164.19" transform="translate(-23)"/>
    <path id="Path_994" data-name="Path 994" class="cls-5" d="M14.25.33" transform="translate(-23)"/>
  </g>
</svg>
